<svg xmlns="http://www.w3.org/2000/svg" version="1.1" xmlns:xlink="http://www.w3.org/1999/xlink" xmlns:svgjs="http://svgjs.dev/svgjs" width="2000" height="2250" viewBox="0 0 2000 2250"><g transform="matrix(1,0,0,1,0.0022017081398644223,0)"><svg viewBox="0 0 320 360" data-background-color="#d5dce3" preserveAspectRatio="xMidYMid meet" height="2250" width="2000" xmlns="http://www.w3.org/2000/svg" xmlns:xlink="http://www.w3.org/1999/xlink"><g id="tight-bounds" transform="matrix(1,0,0,1,0.00010353528136874957,0)"><svg viewBox="0 0 320 360" height="360" width="320"><g><svg></svg></g><g><svg viewBox="0 0 320 360" height="360" width="320"><g><path d="M307.925 179.999l6.575-11.387c11.322-19.607 4.604-44.679-15.003-56.001l-11.387-6.575v-13.151c0-22.639-18.354-40.994-40.994-40.994h-13.151l-6.575-11.387c-11.322-19.607-36.393-26.325-56.001-15.003l-11.39 6.572-11.387-6.576c-19.607-11.318-44.679-4.6-56.001 15.007l-6.575 11.387h-13.151c-22.639 0-40.994 18.354-40.994 40.994v13.151l-11.387 6.575c-19.607 11.322-26.325 36.393-15.003 56.001l6.572 11.387-6.576 11.387c-11.318 19.607-4.6 44.679 15.007 56l11.387 6.576v13.15c0 22.639 18.354 40.994 40.994 40.994h13.151l6.575 11.387c11.322 19.607 36.393 26.325 56.001 15.003l11.387-6.571 11.387 6.575c19.607 11.322 44.679 4.604 56-15.003l6.576-11.387h13.15c22.639 0 40.994-18.354 40.994-40.994v-13.151l11.387-6.575c19.607-11.322 26.325-36.393 15.003-56.001zM297.702 115.716c8.655 4.996 14.842 13.062 17.428 22.713 2.586 9.65 1.261 19.734-3.735 28.384l-5.538 9.596-17.747-30.74v-35.494zM251.155 271.155l-57.791 33.365h-66.731l-57.791-33.365-33.365-57.791v-66.731l33.365-57.791 57.791-33.365h66.731l57.791 33.365 33.365 57.791v66.731zM284.517 220.539v31.351l-27.151 15.676zM247.566 277.366l-15.676 27.151h-31.351zM187.15 308.106l-27.151 15.676-27.151-15.676zM119.459 304.517h-31.352l-15.676-27.151zM62.632 267.566l-27.151-15.676v-31.351zM31.891 207.15l-15.675-27.151 15.675-27.151zM35.481 139.459v-31.352l27.151-15.676zM72.431 82.632l15.676-27.151h31.352zM132.848 51.891l27.151-15.675 27.151 15.675zM200.539 55.481h31.351l15.676 27.151zM257.366 92.431l27.151 15.676v31.352zM288.106 152.848l15.676 27.151-15.676 27.151zM247.112 55.481c9.992 0 19.384 3.889 26.452 10.956 7.063 7.063 10.956 16.46 10.957 26.452v11.079l-30.741-17.747-17.747-30.74zM173.18 28.606c8.655-4.996 18.735-6.322 28.385-3.735 9.65 2.586 17.716 8.777 22.712 17.428l5.538 9.596h-35.494l-30.741-17.747zM95.716 42.295c4.996-8.655 13.062-14.842 22.713-17.428 9.65-2.586 19.734-1.261 28.384 3.736l9.596 5.537-30.74 17.747h-35.494zM35.481 92.885c0-9.992 3.889-19.384 10.956-26.452 7.063-7.063 16.46-10.956 26.452-10.956h11.079l-17.747 30.74-30.74 17.747zM8.606 166.817c-4.996-8.655-6.322-18.735-3.735-28.385 2.586-9.65 8.777-17.716 17.428-22.712l9.596-5.538v35.495l-17.747 30.74zM22.295 244.281c-8.655-4.996-14.842-13.062-17.428-22.712-2.586-9.65-1.261-19.734 3.736-28.385l5.537-9.596 17.747 30.74v35.495zM72.885 304.517c-9.992 0-19.384-3.889-26.452-10.957-7.063-7.063-10.956-16.46-10.956-26.451v-11.08l30.74 17.747 17.747 30.741zM146.817 331.391c-8.655 4.996-18.735 6.322-28.385 3.735-9.65-2.586-17.716-8.777-22.712-17.428l-5.538-9.596h35.495l30.74 17.747zM224.281 317.702c-4.996 8.655-13.062 14.842-22.712 17.428-9.65 2.586-19.734 1.261-28.385-3.735l-9.596-5.538 30.74-17.747h35.495zM284.517 267.112c0 9.992-3.889 19.384-10.957 26.452-7.063 7.063-16.46 10.956-26.451 10.957h-11.08l17.747-30.741 30.741-17.747zM315.13 221.565c-2.586 9.65-8.777 17.716-17.428 22.712l-9.596 5.538v-35.494l17.747-30.741 5.538 9.596c4.996 8.658 6.326 18.739 3.739 28.389z" fill="#ffffff" fill-rule="nonzero" stroke="none" stroke-width="1" stroke-linecap="butt" stroke-linejoin="miter" stroke-miterlimit="10" stroke-dasharray="" stroke-dashoffset="0" font-family="none" font-weight="none" font-size="none" text-anchor="none" style="mix-blend-mode: normal" data-fill-palette-color="tertiary"></path></g><g transform="matrix(1,0,0,1,64,154.86427586194924)"><svg viewBox="0 0 192 50.27144827610151" height="50.27144827610151" width="192"><g><svg viewBox="0 0 192 50.27144827610151" height="50.27144827610151" width="192"><g><svg viewBox="0 0 192 50.27144827610151" height="50.27144827610151" width="192"><g><svg viewBox="0 0 192 50.27144827610151" height="50.27144827610151" width="192"><g id="textblocktransform"><svg viewBox="0 0 192 50.27144827610151" height="50.27144827610151" width="192" id="textblock"><g><svg viewBox="0 0 192 33.028024606971975" height="33.028024606971975" width="192"><g transform="matrix(1,0,0,1,0,0)"><svg width="192" viewBox="1.27 -36.18 214.29 36.86" height="33.028024606971975" data-palette-color="#000000"><path d="M37.06-6.1L37.06-6.1Q37.06-7.37 37.01-8.57 36.96-9.77 36.82-11.04L36.82-11.04 34.42-11.04Q33.84-11.04 32.98-11.06 32.13-11.08 31.23-11.06 30.32-11.04 29.49-10.99 28.66-10.94 28.08-10.79L28.08-10.79 28.81-15.87Q29.88-15.63 31.2-15.63 32.52-15.63 33.64-15.63L33.64-15.63Q34.23-15.58 35.57-15.55 36.91-15.53 38.62-15.5 40.33-15.48 42.21-15.48 44.09-15.48 45.73-15.5 47.36-15.53 48.56-15.58 49.76-15.63 50.1-15.77L50.1-15.77 50.15-10.5Q49.07-10.74 47.56-10.77 46.04-10.79 44.92-10.84L44.92-10.84Q44.63-8.98 44.53-7.03 44.43-5.08 44.43-3.17L44.43-3.17 44.43-2.29Q42.33-1.61 40.01-1.1 37.7-0.59 35.28-0.27 32.86 0.05 30.47 0.2 28.08 0.34 25.88 0.34L25.88 0.34Q23.68 0.34 21.02 0.05 18.36-0.24 15.63-0.93 12.89-1.61 10.3-2.71 7.71-3.81 5.71-5.42 3.71-7.03 2.49-9.2 1.27-11.38 1.27-14.21L1.27-14.21Q1.27-17.63 2.56-20.58 3.86-23.54 6.05-25.98 8.25-28.42 11.16-30.32 14.06-32.23 17.26-33.52 20.46-34.81 23.75-35.5 27.05-36.18 30.08-36.18L30.08-36.18Q32.96-36.18 35.94-35.72 38.92-35.25 41.36-34.01 43.8-32.76 45.36-30.57 46.92-28.37 46.92-24.85L46.92-24.85Q46.92-23.58 46.73-22.29 46.53-21 46.14-19.78L46.14-19.78 36.52-19.78Q37.4-20.9 38.18-22.39 38.96-23.88 38.96-25.44L38.96-25.44Q38.96-27.15 37.82-28.27 36.67-29.39 35.03-30.03 33.4-30.66 31.62-30.91 29.83-31.15 28.52-31.15L28.52-31.15Q25.29-31.15 22-29.98 18.7-28.81 16.04-26.68 13.38-24.56 11.67-21.66 9.96-18.75 9.96-15.28L9.96-15.28Q9.96-13.23 10.74-11.65 11.52-10.06 12.82-8.91 14.11-7.76 15.82-7.01 17.53-6.25 19.36-5.79 21.19-5.32 23.05-5.13 24.9-4.93 26.56-4.93L26.56-4.93Q29.2-4.93 31.81-5.25 34.42-5.57 37.06-6.1ZM82.13-23.78Q81.93-23.44 81.76-22.31 81.59-21.19 81.44-19.65 81.3-18.12 81.2-16.31 81.1-14.5 81.03-12.87 80.95-11.23 80.93-9.94 80.91-8.64 80.91-8.06L80.91-8.06Q80.91-7.57 80.91-6.32 80.91-5.08 81.03-3.76 81.15-2.44 81.37-1.37 81.59-0.29 82.03-0.1L82.03-0.1 73.44-0.15 73.63-2.49Q71.77-1.17 69.58-0.32 67.38 0.54 65.09 0.54L65.09 0.54Q62.79 0.54 60.67-0.02 58.54-0.59 56.93-1.76 55.32-2.93 54.34-4.76 53.37-6.59 53.37-9.18L53.37-9.18Q53.37-12.45 53.68-15.67 54-18.9 54-22.17L54-22.17Q54-22.71 53.98-23.24 53.95-23.78 53.85-24.32L53.85-24.32 62.11-24.32Q61.62-23.49 61.37-21.68 61.13-19.87 61.01-17.82 60.89-15.77 60.86-13.84 60.84-11.91 60.84-10.84L60.84-10.84Q60.84-8.98 61.13-7.76 61.42-6.54 62.13-5.81 62.84-5.08 64.06-4.79 65.28-4.49 67.14-4.49L67.14-4.49Q68.16-4.49 69.11-4.86 70.07-5.22 70.94-5.81 71.82-6.4 72.56-7.13 73.29-7.86 73.87-8.59L73.87-8.59Q73.97-10.74 74.02-12.84 74.07-14.94 74.07-17.09L74.07-17.09Q74.07-17.53 74.07-18.53 74.07-19.53 74.02-20.61 73.97-21.68 73.85-22.58 73.73-23.49 73.53-23.78L73.53-23.78 82.13-23.78ZM115.62-15.04L115.62-15.04Q115.62-11.67 115.3-8.35 114.99-5.03 114.99-1.66L114.99-1.66Q114.99-0.54 115.13 0.54L115.13 0.54 106.59 0.54Q107.08-0.24 107.32-2.08 107.56-3.91 107.69-5.98 107.81-8.06 107.83-9.99 107.86-11.91 107.86-12.94L107.86-12.94Q107.86-15.92 106.39-17.6 104.93-19.29 101.85-19.29L101.85-19.29Q100.83-19.29 99.87-18.92 98.92-18.55 98.07-17.97 97.21-17.38 96.45-16.65 95.7-15.92 95.11-15.19L95.11-15.19Q94.97-10.94 94.97-6.69L94.97-6.69Q94.97-6.35 94.97-5.35 94.97-4.35 95.01-3.22 95.06-2.1 95.16-1.15 95.26-0.2 95.5 0L95.5 0 86.86 0Q87.06-0.29 87.25-1.44 87.45-2.59 87.59-4.17 87.74-5.76 87.84-7.57 87.93-9.38 88.01-11.04 88.08-12.7 88.11-13.96 88.13-15.23 88.13-15.72L88.13-15.72Q88.13-16.11 88.11-17.36 88.08-18.6 87.98-19.95 87.89-21.29 87.67-22.41 87.45-23.54 87.01-23.68L87.01-23.68 95.55-23.63 95.41-21.29Q97.21-22.61 99.43-23.46 101.66-24.32 103.95-24.32L103.95-24.32Q106.2-24.32 108.32-23.85 110.44-23.39 112.06-22.29 113.67-21.19 114.64-19.43 115.62-17.68 115.62-15.04ZM147.55 0.59L138.52 0.59Q139.35 0.34 139.54-0.51 139.74-1.37 139.79-2.05L139.79-2.05Q137.59-1.37 135.34-1.03 133.1-0.68 130.85-0.68L130.85-0.68Q129.39-0.68 127.36-0.93 125.33-1.17 123.5-1.86 121.67-2.54 120.38-3.76 119.08-4.98 119.08-6.98L119.08-6.98Q119.08-8.69 120.33-9.91 121.57-11.13 123.53-11.94 125.48-12.74 127.92-13.18 130.36-13.62 132.71-13.87 135.05-14.11 137.1-14.16 139.15-14.21 140.32-14.26L140.32-14.26Q140.32-14.94 140.35-15.58 140.37-16.21 140.37-16.89L140.37-16.89Q140.37-18.12 139.93-19.02 139.49-19.92 138.74-20.51 137.98-21.09 136.96-21.36 135.93-21.63 134.81-21.63L134.81-21.63Q133.73-21.63 132.49-21.34 131.24-21.04 130.12-20.46 129-19.87 128.17-18.97 127.34-18.07 127.14-16.89L127.14-16.89 120.99-17.72Q121.87-19.97 123.43-21.53 124.99-23.1 126.97-24.07 128.95-25.05 131.19-25.51 133.44-25.98 135.69-25.98L135.69-25.98Q137.83-25.98 139.86-25.44 141.89-24.9 143.47-23.8 145.06-22.71 146.01-21 146.97-19.29 146.97-16.94L146.97-16.94Q146.97-14.45 146.89-11.99 146.82-9.52 146.82-7.03L146.82-7.03Q146.82-6.59 146.82-5.44 146.82-4.3 146.89-3.05 146.97-1.81 147.11-0.76 147.26 0.29 147.55 0.59L147.55 0.59ZM125.72-6.98L125.72-6.98Q125.72-6.25 126.51-5.86 127.29-5.47 128.34-5.25 129.39-5.03 130.41-4.98 131.44-4.93 131.88-4.93L131.88-4.93Q133.93-4.93 136.03-5.22 138.13-5.52 140.08-6.15L140.08-6.15Q140.13-7.03 140.15-7.91 140.18-8.79 140.18-9.62L140.18-9.62 138.91-9.67Q138.47-9.67 137.32-9.64 136.17-9.62 134.71-9.55 133.24-9.47 131.66-9.3 130.07-9.13 128.75-8.84 127.43-8.54 126.58-8.08 125.72-7.62 125.72-6.98ZM171.38-14.4Q171.67-15.23 171.87-16.14 172.06-17.04 172.06-17.97L172.06-17.97Q172.06-20.02 170.96-21.02 169.86-22.02 167.81-22.02L167.81-22.02Q166.64-22.02 165.05-21.75 163.47-21.48 162.05-20.85 160.63-20.21 159.63-19.19 158.63-18.16 158.63-16.65L158.63-16.65Q158.63-15.53 159.73-14.77 160.83-14.01 162.29-13.55 163.76-13.09 165.25-12.84 166.74-12.6 167.52-12.45L167.52-12.45Q168.74-12.21 170.62-11.84 172.5-11.47 174.26-10.77 176.02-10.06 177.28-9.01 178.55-7.96 178.55-6.35L178.55-6.35Q178.55-4.54 177.14-3.32 175.72-2.1 173.74-1.37 171.77-0.63 169.62-0.32 167.47 0 166.05 0L166.05 0Q163.12 0 160.24-0.42 157.36-0.83 154.58-1.81L154.58-1.81Q154.24-1.95 153.46-2.27 152.68-2.59 151.82-2.95 150.97-3.32 150.23-3.61 149.5-3.91 149.31-3.91L149.31-3.91Q149.4-3.96 149.99-4.49 150.58-5.03 151.24-5.69 151.89-6.35 152.43-6.93 152.97-7.52 153.02-7.67L153.02-7.67Q155.51-5.81 158.56-4.93 161.61-4.05 164.69-4.05L164.69-4.05Q165.03-4.05 166.01-4.13 166.98-4.2 168.03-4.39 169.08-4.59 169.91-4.93 170.74-5.27 170.74-5.81L170.74-5.81Q170.74-6.59 169.37-7.08 168.01-7.57 165.93-8.01 163.86-8.45 161.46-8.98 159.07-9.52 157-10.38 154.92-11.23 153.55-12.5 152.19-13.77 152.19-15.77L152.19-15.77Q152.19-18.7 153.77-20.78 155.36-22.85 157.75-24.15 160.15-25.44 162.93-26.03 165.71-26.61 168.15-26.61L168.15-26.61Q170.16-26.61 172.01-26.29 173.87-25.98 175.28-25.15 176.7-24.32 177.55-22.85 178.41-21.39 178.41-19.04L178.41-19.04Q178.41-17.87 178.24-16.7 178.07-15.53 177.82-14.4L177.82-14.4 171.38-14.4ZM198.82-23.54L198.82-23.54Q201.5-23.54 204.48-22.78 207.46-22.02 209.9-20.48 212.34-18.95 213.95-16.6 215.56-14.26 215.56-11.08L215.56-11.08Q215.56-8.98 214.78-7.3 214-5.62 212.71-4.32 211.41-3.03 209.7-2.08 208-1.12 206.12-0.51 204.24 0.1 202.28 0.39 200.33 0.68 198.62 0.68L198.62 0.68Q195.84 0.68 192.91 0.05 189.98-0.59 187.56-2 185.14-3.42 183.61-5.69 182.07-7.96 182.07-11.28L182.07-11.28Q182.07-14.55 183.65-16.87 185.24-19.19 187.68-20.68 190.12-22.17 193.08-22.85 196.03-23.54 198.82-23.54ZM189.39-11.33L189.39-11.33Q189.39-9.42 190.25-8.11 191.1-6.79 192.44-5.96 193.79-5.13 195.45-4.76 197.11-4.39 198.72-4.39L198.72-4.39Q200.23-4.39 201.89-4.79 203.55-5.18 204.97-6.01 206.38-6.84 207.31-8.13 208.24-9.42 208.24-11.23L208.24-11.23Q208.24-13.04 207.36-14.38 206.48-15.72 205.11-16.63 203.75-17.53 202.06-17.97 200.38-18.41 198.82-18.41L198.82-18.41Q197.2-18.41 195.54-17.99 193.88-17.58 192.52-16.72 191.15-15.87 190.27-14.53 189.39-13.18 189.39-11.33Z" opacity="1" transform="matrix(1,0,0,1,0,0)" fill="#ffffff" class="wordmark-text-0" data-fill-palette-color="primary" id="text-0"></path></svg></g></svg></g><g transform="matrix(1,0,0,1,0,40.82514854408749)"><svg viewBox="0 0 192 9.446299732014017" height="9.446299732014017" width="192"><g transform="matrix(1,0,0,1,0,0)"><svg width="192" viewBox="2.5 -35.5 727.59 35.8" height="9.446299732014017" data-palette-color="#544d4d"><path d="M17.3 0.3L17.3 0.3Q10.15 0.3 6.33-4.53 2.5-9.35 2.5-17.6 2.5-25.85 6.55-30.65 10.6-35.45 17.85-35.45L17.85-35.45Q21.85-35.45 25.7-34L25.7-34 24.8-30.9Q21.75-32.2 17.6-32.2L17.6-32.2Q12.35-32.2 9.3-28.38 6.25-24.55 6.25-17.88 6.25-11.2 9.13-7.08 12-2.95 17.15-2.95L17.15-2.95Q20.55-2.95 25.7-4.9L25.7-4.9 26.7-2.3Q22.4 0.3 17.3 0.3ZM45.35 0.25L45.35 0.25Q38.5 0.25 35-4.83 31.5-9.9 31.5-17.75 31.5-25.6 35.02-30.55 38.55-35.5 45.37-35.5 52.2-35.5 55.75-30.55 59.3-25.6 59.3-17.75L59.3-17.75Q59.3-7 53.2-2.25L53.2-2.25Q49.95 0.25 45.35 0.25ZM45.45-32.25L45.45-32.25Q40.35-32.25 37.82-28 35.3-23.75 35.3-17.6 35.3-11.45 37.87-7.25 40.45-3.05 45.45-3.05 50.45-3.05 53-7.3 55.55-11.55 55.55-18L55.55-18Q55.55-26.1 51-30.1L51-30.1Q48.65-32.25 45.45-32.25ZM95.65-35L95.65 0 91.89 0 91.89-28.7 80.64-9.2 79.34-9.25 68.09-28.65 68.09 0 64.39 0 64.39-35 68.59-35 80.05-15.75 91.89-35 95.65-35ZM111.84-14.7L111.84-14.7 106.74-14.7 106.74 0 102.99 0 102.99-35 112.99-35Q118.59-35 121.12-32.55 123.64-30.1 123.64-24.93 123.64-19.75 120.54-17.23 117.44-14.7 111.84-14.7ZM111.29-31.8L111.29-31.8 106.74-31.8 106.74-17.9 110.04-17.9Q115.19-17.9 117.54-19.45 119.89-21 119.89-24.78 119.89-28.55 117.84-30.18 115.79-31.8 111.29-31.8ZM148.79-3.25L148.79 0 130.04 0 130.04-35 133.79-35 133.79-3.25 148.79-3.25ZM165.84-35L177.44 0 173.24 0 169.74-11.05 157.19-11.05 153.74 0 149.79 0 161.29-35 165.84-35ZM158.14-14.3L168.89-14.3 163.54-31.2 158.14-14.3ZM186.38-35L186.38 0 182.63 0 182.63-35 186.38-35ZM220.33-35L220.33 0.05 216.23 0.05 199.38-28 199.38 0 195.48 0 195.48-35 199.38-35 216.58-5.9 216.58-35 220.33-35ZM271.43-35L271.43 0 267.68 0 267.68-28.7 256.43-9.2 255.13-9.25 243.88-28.65 243.88 0 240.18 0 240.18-35 244.38-35 255.83-15.75 267.68-35 271.43-35ZM290.93-35L302.53 0 298.33 0 294.83-11.05 282.28-11.05 278.83 0 274.88 0 286.38-35 290.93-35ZM283.23-14.3L293.98-14.3 288.63-31.2 283.23-14.3ZM332.57-35L332.57 0.05 328.47 0.05 311.62-28 311.62 0 307.72 0 307.72-35 311.62-35 328.82-5.9 328.82-35 332.57-35ZM353.82-35L365.42 0 361.22 0 357.72-11.05 345.17-11.05 341.72 0 337.77 0 349.27-35 353.82-35ZM346.12-14.3L356.87-14.3 351.52-31.2 346.12-14.3ZM384.17 0.3L384.17 0.3Q376.92 0.3 372.64-4.6 368.37-9.5 368.37-17.68 368.37-25.85 372.42-30.68 376.47-35.5 383.72-35.5L383.72-35.5Q388.32-35.5 393.07-33.7L393.07-33.7 392.17-30.6Q390.47-31.3 387.72-31.78 384.97-32.25 383.47-32.25L383.47-32.25Q378.22-32.25 375.17-28.4 372.12-24.55 372.12-18 372.12-11.45 375.34-7.2 378.57-2.95 383.62-2.95L383.62-2.95Q387.17-2.95 390.32-3.95L390.32-3.95 390.32-14.5 383.02-14.5 383.02-17.75 394.07-17.75 394.07-2.4Q389.37 0.3 384.17 0.3ZM421.76-3.25L421.76 0 402.92 0 402.92-35 421.76-35 421.76-31.75 406.67-31.75 406.67-20.65 420.51-20.65 420.51-17.3 406.67-17.3 406.67-3.25 421.76-3.25ZM459.51-35L459.51 0 455.76 0 455.76-28.7 444.51-9.2 443.21-9.25 431.96-28.65 431.96 0 428.26 0 428.26-35 432.46-35 443.91-15.75 455.76-35 459.51-35ZM485.71-3.25L485.71 0 466.86 0 466.86-35 485.71-35 485.71-31.75 470.61-31.75 470.61-20.65 484.46-20.65 484.46-17.3 470.61-17.3 470.61-3.25 485.71-3.25ZM518.81-35L518.81 0.05 514.71 0.05 497.86-28 497.86 0 493.96 0 493.96-35 497.86-35 515.06-5.9 515.06-35 518.81-35ZM537.86 0L534.15 0 534.15-31.65 524.36-31.65 524.36-35 547.56-35 547.56-31.65 537.86-31.65 537.86 0ZM583.2-33.75L583.2-33.75 582.4-30.4 579.5-31.25Q576.4-32 574.15-32L574.15-32Q568.25-32 568.25-26.75L568.25-26.75Q568.25-24.45 570.05-22.98 571.85-21.5 574.42-20.63 577-19.75 579.57-18.73 582.15-17.7 583.95-15.58 585.75-13.45 585.75-10.2L585.75-10.2Q585.75-5.25 582.7-2.48 579.65 0.3 574.05 0.3L574.05 0.3Q571.25 0.3 568.42-0.53 565.6-1.35 563.8-2.45L563.8-2.45 565.05-5.3Q569.6-3.2 573.67-3.2 577.75-3.2 579.88-4.85 582-6.5 582-9.65L582-9.65Q582-12.85 578.55-14.65L578.55-14.65Q577-15.45 575.13-16.15 573.25-16.85 571.38-17.68 569.5-18.5 567.97-19.55 566.45-20.6 565.47-22.4 564.5-24.2 564.5-26.6L564.5-26.6Q564.5-30.9 567.07-33.2 569.65-35.5 574-35.5 578.35-35.5 583.2-33.75ZM611.5-35L615.55-35 604.05-15.75 604.05 0 600.3 0 600.3-15.75 589.25-35 593.4-35 602.25-18.8 611.5-35ZM638.34-33.75L638.34-33.75 637.54-30.4 634.64-31.25Q631.54-32 629.29-32L629.29-32Q623.39-32 623.39-26.75L623.39-26.75Q623.39-24.45 625.19-22.98 626.99-21.5 629.57-20.63 632.14-19.75 634.72-18.73 637.29-17.7 639.09-15.58 640.89-13.45 640.89-10.2L640.89-10.2Q640.89-5.25 637.84-2.48 634.79 0.3 629.19 0.3L629.19 0.3Q626.39 0.3 623.57-0.53 620.74-1.35 618.94-2.45L618.94-2.45 620.19-5.3Q624.74-3.2 628.82-3.2 632.89-3.2 635.02-4.85 637.14-6.5 637.14-9.65L637.14-9.65Q637.14-12.85 633.69-14.65L633.69-14.65Q632.14-15.45 630.27-16.15 628.39-16.85 626.52-17.68 624.64-18.5 623.12-19.55 621.59-20.6 620.62-22.4 619.64-24.2 619.64-26.6L619.64-26.6Q619.64-30.9 622.22-33.2 624.79-35.5 629.14-35.5 633.49-35.5 638.34-33.75ZM658.24 0L654.54 0 654.54-31.65 644.74-31.65 644.74-35 667.94-35 667.94-31.65 658.24-31.65 658.24 0ZM692.34-3.25L692.34 0 673.49 0 673.49-35 692.34-35 692.34-31.75 677.24-31.75 677.24-20.65 691.09-20.65 691.09-17.3 677.24-17.3 677.24-3.25 692.34-3.25ZM730.09-35L730.09 0 726.34 0 726.34-28.7 715.09-9.2 713.79-9.25 702.54-28.65 702.54 0 698.84 0 698.84-35 703.04-35 714.49-15.75 726.34-35 730.09-35Z" opacity="1" transform="matrix(1,0,0,1,0,0)" fill="#ffffff" class="slogan-text-1" data-fill-palette-color="secondary" id="text-1"></path></svg></g></svg></g></svg></g></svg></g><g></g></svg></g></svg></g></svg></g></svg></g><defs></defs></svg><rect width="320" height="360" fill="none" stroke="none" visibility="hidden"></rect></g></svg></g></svg>